<svg xmlns="http://www.w3.org/2000/svg" xmlns:xlink="http://www.w3.org/1999/xlink">
  <symbol id="facebook">
    <path d="M14.586,4L11.947,4A4.593,4.593,0,0,0,7.068,8.921V11.19H4.415A0.412,0.412,0,0,0,4,11.6v3.288a0.411,0.411,0,0,0,.415.408H7.068v8.3A0.411,0.411,0,0,0,7.482,24h3.461a0.411,0.411,0,0,0,.415-0.407v-8.3h3.1a0.411,0.411,0,0,0,.415-0.408V11.6a0.4,0.4,0,0,0-.121-0.288,0.419,0.419,0,0,0-.293-0.12h-3.1V9.267c0-.924.224-1.394,1.449-1.394h1.777A0.411,0.411,0,0,0,15,7.465V4.411A0.412,0.412,0,0,0,14.586,4Z">
    </path>
  </symbol>
</svg>