<svg xmlns="http://www.w3.org/2000/svg" xmlns:xlink="http://www.w3.org/1999/xlink">
  <symbol id="instagram">
    <path d="M14.908,20.5H6.916A6,6,0,0,1,.922,14.509V6.518A6,6,0,0,1,6.916.523h7.992A6,6,0,0,1,20.9,6.518v7.992A6,6,0,0,1,14.908,20.5ZM6.916,2.542A3.98,3.98,0,0,0,2.941,6.518v7.992a3.98,3.98,0,0,0,3.975,3.975h7.992a3.98,3.98,0,0,0,3.975-3.975V6.518a3.98,3.98,0,0,0-3.975-3.976H6.916Zm4,11.967a4,4,0,1,1,4-4A4,4,0,0,1,10.912,14.509Zm0-5.973a1.977,1.977,0,1,0,1.977,1.977A1.979,1.979,0,0,0,10.912,8.536Zm5.71-3.17a1.2,1.2,0,1,1-1.2-1.2A1.2,1.2,0,0,1,16.622,5.367Z">
    </path>
  </symbol>
</svg>