<svg xmlns="http://www.w3.org/2000/svg" xmlns:xlink="http://www.w3.org/1999/xlink">
  <symbol id="twitter">
    <path d="M19.559,4.239a6.6,6.6,0,0,1-2.086.8,3.283,3.283,0,0,0-5.678,2.245,3.313,3.313,0,0,0,.085.748A9.317,9.317,0,0,1,5.114,4.6,3.287,3.287,0,0,0,6.13,8.981a3.273,3.273,0,0,1-1.487-.412V8.61a3.286,3.286,0,0,0,2.632,3.219,3.256,3.256,0,0,1-1.483.056,3.287,3.287,0,0,0,3.066,2.281,6.589,6.589,0,0,1-4.076,1.4A6.881,6.881,0,0,1,4,15.525,9.335,9.335,0,0,0,18.37,7.659L18.36,7.234A6.609,6.609,0,0,0,20,5.537a6.551,6.551,0,0,1-1.885.517A3.3,3.3,0,0,0,19.559,4.239Z">
    </path>
  </symbol>
</svg>