<svg xmlns="http://www.w3.org/2000/svg" xmlns:xlink="http://www.w3.org/1999/xlink">
  <symbol id="youtube">
    <path d="M22.259,5.116C21.573,4.323,20.307,4,17.889,4H9.111c-2.474,0-3.761.344-4.445,1.188C4,6.01,4,7.222,4,8.9v3.2c0,3.251.79,4.9,5.111,4.9h8.778c2.1,0,3.259-.285,4.011-0.984C22.671,15.3,23,14.126,23,12.1V8.9C23,7.131,22.948,5.911,22.259,5.116ZM16.2,10.941l-3.986,2.025a0.628,0.628,0,0,1-.6-0.018,0.593,0.593,0,0,1-.3-0.51V8.4a0.593,0.593,0,0,1,.295-0.51,0.628,0.628,0,0,1,.6-0.019L16.2,9.884A0.589,0.589,0,0,1,16.2,10.941Z">
    </path>
  </symbol>
</svg>